<?xml version="1.0" encoding="UTF-8" standalone="no"?>
<!-- Created with Inkscape (http://www.inkscape.org/) -->
<svg id="svg3676" xmlns:rdf="http://www.w3.org/1999/02/22-rdf-syntax-ns#" xmlns="http://www.w3.org/2000/svg" xml:space="preserve" height="350" viewBox="0 0 1100 350" width="1100" version="1.1" xmlns:cc="http://creativecommons.org/ns#" xmlns:dc="http://purl.org/dc/elements/1.1/"><metadata id="metadata3682"><rdf:RDF><cc:Work rdf:about=""><dc:format>image/svg+xml</dc:format><dc:type rdf:resource="http://purl.org/dc/dcmitype/StillImage"/><dc:title/></cc:Work></rdf:RDF></metadata><defs id="defs3680"><clipPath id="clipPath3706" clipPathUnits="userSpaceOnUse"><path id="path3708" d="m112.02 753.9c0-6.107 4.951-11.058 11.058-11.058 6.108 0 11.06 4.951 11.06 11.058 0 6.108-4.952 11.06-11.06 11.06-6.107 0-11.058-4.952-11.058-11.06"/></clipPath><linearGradient id="linearGradient3714" gradientUnits="userSpaceOnUse" gradientTransform="matrix(160.5 -221 -221 -160.5 31.564 879.91)"><stop id="stop3716" stop-color="#2aeb8e" offset="0"/><stop id="stop3718" stop-color="#0094f3" offset="1"/></linearGradient><clipPath id="clipPath3726" clipPathUnits="userSpaceOnUse"><path id="path3728" d="m201.56 821.1c0-6.108 4.951-11.059 11.058-11.059 6.108 0 11.059 4.951 11.059 11.059 0 6.107-4.951 11.058-11.059 11.058-6.107 0-11.058-4.951-11.058-11.058"/></clipPath><linearGradient id="linearGradient3734" gradientUnits="userSpaceOnUse" gradientTransform="matrix(160.5 -221 -221 -160.5 122.13 945.69)"><stop id="stop3736" stop-color="#2aeb8e" offset="0"/><stop id="stop3738" stop-color="#0094f3" offset="1"/></linearGradient><clipPath id="clipPath3746" clipPathUnits="userSpaceOnUse"><path id="path3748" d="m164.23 826.52c-2.552-34.24 24.244-47.425 24.244-47.425 5.742 6.806 7.656 11.91 7.656 11.91-19.566 11.484-17.864 30.624-17.864 30.624 0.425 15.949 10.633 24.456 10.633 24.456-2.764 4.253-10.42 9.782-10.42 9.782-13.399-13.823-14.249-29.347-14.249-29.347"/></clipPath><linearGradient id="linearGradient3754" gradientUnits="userSpaceOnUse" gradientTransform="matrix(160.5 -221 -221 -160.5 100.68 930.11)"><stop id="stop3756" stop-color="#2aeb8e" offset="0"/><stop id="stop3758" stop-color="#0094f3" offset="1"/></linearGradient><clipPath id="clipPath3766" clipPathUnits="userSpaceOnUse"><path id="path3768" d="m221.37 868.75c-3.349 0.624-11.706 1.696-21.197-0.759 0 0 6.804-5.954 10.845-12.547 0 0 22.33 1.701 32.538-19.99 0 0 10.208-19.565-6.167-37.855 0 0-7.869-8.081-17.651-9.782 0 0 0-2.553-7.231-15.1 0 0 31.262-1.063 44.447 29.348 0 0 10.845 22.118-2.978 44.447 0 0-9.783 17.438-30.836 21.904-7.018 1.489-9.381 1.985-9.413 1.985-0.047 0 5.007-1.085 7.643-1.651"/></clipPath><linearGradient id="linearGradient3774" gradientUnits="userSpaceOnUse" gradientTransform="matrix(160.5 -221 -221 -160.5 130.23 951.57)"><stop id="stop3776" stop-color="#2aeb8e" offset="0"/><stop id="stop3778" stop-color="#0094f3" offset="1"/></linearGradient><clipPath id="clipPath3786" clipPathUnits="userSpaceOnUse"><path id="path3788" d="m99.567 796.29c2.846-8.436 6.22-12.718 6.22-12.718 19.958 10.786 35.449-0.585 35.449-0.585 13.422-8.626 15.41-21.764 15.41-21.764 5.07 0.162 13.766 3.845 13.766 3.845-4.89 18.63-17.73 27.4-17.73 27.4-10.693 7.617-20.973 9.969-29.596 9.968-13.92 0-23.523-6.14-23.523-6.14"/></clipPath><linearGradient id="linearGradient3794" gradientUnits="userSpaceOnUse" gradientTransform="matrix(160.5 -221 -221 -160.5 52.577 895.17)"><stop id="stop3796" stop-color="#2aeb8e" offset="0"/><stop id="stop3798" stop-color="#0094f3" offset="1"/></linearGradient><clipPath id="clipPath3806" clipPathUnits="userSpaceOnUse"><path id="path3808" d="m83.739 725.82s13.299-20.734 39.559-20.478c0 0 19.984-0.666 34.711 15.029 12.173 12.973 4.298 4.625 1.2 1.338 2.268 2.54 7.517 9.135 10.335 18.528 0 0-8.62-2.736-16.351-2.777 0 0-10.113-19.982-33.956-17.476 0 0-22.023 1.404-29.183 24.886 0 0-2.837 10.916 0.776 20.165 0 0-2.183 1.322-9.169 14.007 0 0-17.105-26.189 2.078-53.222"/></clipPath><linearGradient id="linearGradient3814" gradientUnits="userSpaceOnUse" gradientTransform="matrix(160.5 -221 -221 -160.5 23.963 874.39)"><stop id="stop3816" stop-color="#2aeb8e" offset="0"/><stop id="stop3818" stop-color="#0094f3" offset="1"/></linearGradient><clipPath id="clipPath3826" clipPathUnits="userSpaceOnUse"><path id="path3828" d="m97.136 862.36c0-6.107 4.951-11.058 11.058-11.058 6.108 0 11.06 4.951 11.06 11.058 0 6.108-4.952 11.06-11.06 11.06-6.107 0-11.058-4.952-11.058-11.06"/></clipPath><linearGradient id="linearGradient3834" gradientUnits="userSpaceOnUse" gradientTransform="matrix(160.5 -221 -221 -160.5 73.387 910.29)"><stop id="stop3836" stop-color="#2aeb8e" offset="0"/><stop id="stop3838" stop-color="#0094f3" offset="1"/></linearGradient><clipPath id="clipPath3846" clipPathUnits="userSpaceOnUse"><path id="path3848" d="m142.51 864.48c0.504-22.68-16.677-31.285-16.677-31.285-13.797-8.016-26.396-3.798-26.396-3.798-2.168-4.586-2.852-14.005-2.852-14.005 18.8-4.14 32.458 3.289 32.458 3.289 30.476 15.812 27.622 45.539 27.622 45.539-3.383 0.504-6.255 0.66-8.51 0.659-3.616 0-5.645-0.399-5.645-0.399"/></clipPath><linearGradient id="linearGradient3854" gradientUnits="userSpaceOnUse" gradientTransform="matrix(160.5 -221 -221 -160.5 74.731 911.26)"><stop id="stop3856" stop-color="#2aeb8e" offset="0"/><stop id="stop3858" stop-color="#0094f3" offset="1"/></linearGradient><clipPath id="clipPath3866" clipPathUnits="userSpaceOnUse"><path id="path3868" d="m101.15 910.43s-24.518-2.387-36.259-25.879c0 0-9.702-17.483-2.444-37.745 5.998-16.746 2.158-5.935 0.645-1.679 1.227-3.177 4.706-10.853 11.78-17.642 0 0 1.494 8.919 4.981 15.819 0 0-13.176 18.109-0.078 38.188 0 0 11.287 18.963 35.451 14.635 0 0 11.009-2.451 17.596-9.883 0 0 2.171 1.341 16.646 1.778 0 0-13.121 22.964-40.735 22.966-2.418 0-4.942-0.175-7.583-0.558"/></clipPath><linearGradient id="linearGradient3874" gradientUnits="userSpaceOnUse" gradientTransform="matrix(160.5 -221 -221 -160.5 73.292 910.22)"><stop id="stop3876" stop-color="#2aeb8e" offset="0"/><stop id="stop3878" stop-color="#0094f3" offset="1"/></linearGradient></defs><g id="g3684" transform="matrix(1.25,0,0,-1.25,0,350)"><g id="g4787" transform="translate(-27.525 -665.53)"><g id="g3702"><g id="g3704" clip-path="url(#clipPath3706)"><g id="g3710"><g id="g3712"><path id="path3720" d="m112.02 753.9c0-6.107 4.951-11.058 11.058-11.058 6.108 0 11.06 4.951 11.06 11.058 0 6.108-4.952 11.06-11.06 11.06-6.107 0-11.058-4.952-11.058-11.06" fill="url(#linearGradient3714)"/></g></g></g></g><g id="g3722"><g id="g3724" clip-path="url(#clipPath3726)"><g id="g3730"><g id="g3732"><path id="path3740" d="m201.56 821.1c0-6.108 4.951-11.059 11.058-11.059 6.108 0 11.059 4.951 11.059 11.059 0 6.107-4.951 11.058-11.059 11.058-6.107 0-11.058-4.951-11.058-11.058" fill="url(#linearGradient3734)"/></g></g></g></g><g id="g3742"><g id="g3744" clip-path="url(#clipPath3746)"><g id="g3750"><g id="g3752"><path id="path3760" d="m164.23 826.52c-2.552-34.24 24.244-47.425 24.244-47.425 5.742 6.806 7.656 11.91 7.656 11.91-19.566 11.484-17.864 30.624-17.864 30.624 0.425 15.949 10.633 24.456 10.633 24.456-2.764 4.253-10.42 9.782-10.42 9.782-13.399-13.823-14.249-29.347-14.249-29.347" fill="url(#linearGradient3754)"/></g></g></g></g><g id="g3762"><g id="g3764" clip-path="url(#clipPath3766)"><g id="g3770"><g id="g3772"><path id="path3780" d="m221.37 868.75c-3.349 0.624-11.706 1.696-21.197-0.759 0 0 6.804-5.954 10.845-12.547 0 0 22.33 1.701 32.538-19.99 0 0 10.208-19.565-6.167-37.855 0 0-7.869-8.081-17.651-9.782 0 0 0-2.553-7.231-15.1 0 0 31.262-1.063 44.447 29.348 0 0 10.845 22.118-2.978 44.447 0 0-9.783 17.438-30.836 21.904-7.018 1.489-9.381 1.985-9.413 1.985-0.047 0 5.007-1.085 7.643-1.651" fill="url(#linearGradient3774)"/></g></g></g></g><g id="g3782"><g id="g3784" clip-path="url(#clipPath3786)"><g id="g3790"><g id="g3792"><path id="path3800" d="m99.567 796.29c2.846-8.436 6.22-12.718 6.22-12.718 19.958 10.786 35.449-0.585 35.449-0.585 13.422-8.626 15.41-21.764 15.41-21.764 5.07 0.162 13.766 3.845 13.766 3.845-4.89 18.63-17.73 27.4-17.73 27.4-10.693 7.617-20.973 9.969-29.596 9.968-13.92 0-23.523-6.14-23.523-6.14" fill="url(#linearGradient3794)"/></g></g></g></g><g id="g3802"><g id="g3804" clip-path="url(#clipPath3806)"><g id="g3810"><g id="g3812"><path id="path3820" d="m83.739 725.82s13.299-20.734 39.559-20.478c0 0 19.984-0.666 34.711 15.029 12.173 12.973 4.298 4.625 1.2 1.338 2.268 2.54 7.517 9.135 10.335 18.528 0 0-8.62-2.736-16.351-2.777 0 0-10.113-19.982-33.956-17.476 0 0-22.023 1.404-29.183 24.886 0 0-2.837 10.916 0.776 20.165 0 0-2.183 1.322-9.169 14.007 0 0-17.105-26.189 2.078-53.222" fill="url(#linearGradient3814)"/></g></g></g></g><g id="g3822"><g id="g3824" clip-path="url(#clipPath3826)"><g id="g3830"><g id="g3832"><path id="path3840" d="m97.136 862.36c0-6.107 4.951-11.058 11.058-11.058 6.108 0 11.06 4.951 11.06 11.058 0 6.108-4.952 11.06-11.06 11.06-6.107 0-11.058-4.952-11.058-11.06" fill="url(#linearGradient3834)"/></g></g></g></g><g id="g3842"><g id="g3844" clip-path="url(#clipPath3846)"><g id="g3850"><g id="g3852"><path id="path3860" d="m142.51 864.48c0.504-22.68-16.677-31.285-16.677-31.285-13.797-8.016-26.396-3.798-26.396-3.798-2.168-4.586-2.852-14.005-2.852-14.005 18.8-4.14 32.458 3.289 32.458 3.289 30.476 15.812 27.622 45.539 27.622 45.539-3.383 0.504-6.255 0.66-8.51 0.659-3.616 0-5.645-0.399-5.645-0.399" fill="url(#linearGradient3854)"/></g></g></g></g><g id="g3862"><g id="g3864" clip-path="url(#clipPath3866)"><g id="g3870"><g id="g3872"><path id="path3880" d="m101.15 910.43s-24.518-2.387-36.259-25.879c0 0-9.702-17.483-2.444-37.745 5.998-16.746 2.158-5.935 0.645-1.679 1.227-3.177 4.706-10.853 11.78-17.642 0 0 1.494 8.919 4.981 15.819 0 0-13.176 18.109-0.078 38.188 0 0 11.287 18.963 35.451 14.635 0 0 11.009-2.451 17.596-9.883 0 0 2.171 1.341 16.646 1.778 0 0-13.121 22.964-40.735 22.966-2.418 0-4.942-0.175-7.583-0.558" fill="url(#linearGradient3874)"/></g></g></g></g></g><g id="g4834" transform="translate(-130.03 -674.65)"><g id="g4250" transform="translate(433.27 843.52)"><path id="path4252" d="m0 0c-3.502 0-6.616-0.775-9.343-2.323-2.727-1.55-4.865-3.737-6.413-6.565-1.55-2.828-2.323-6.095-2.323-9.797 0-3.704 0.757-6.969 2.272-9.797s3.601-5.034 6.263-6.616c2.659-1.583 5.706-2.373 9.14-2.373s6.53 0.571 9.292 1.717c2.76 1.144 5.05 2.793 6.868 4.949l5.353-5.454c-2.424-3.03-5.505-5.353-9.242-6.969s-7.963-2.424-12.675-2.424c-5.186 0-9.797 1.144-13.837 3.434-4.04 2.288-7.188 5.469-9.444 9.544-2.256 4.073-3.383 8.737-3.383 13.989s1.127 9.931 3.383 14.039c2.256 4.106 5.404 7.305 9.444 9.595 4.04 2.288 8.651 3.434 13.837 3.434 4.51 0 8.567-0.691 12.17-2.071 3.602-1.38 6.616-3.383 9.04-6.009l-5.151-6.464c-4.242 4.106-9.327 6.161-15.251 6.161"/></g><g id="g4254" transform="translate(478.37 841.3)"><path id="path4256" d="m0 0c-2.727-1.616-4.848-3.855-6.363-6.716-1.515-2.863-2.272-6.111-2.272-9.747 0-3.704 0.757-7.004 2.272-9.898 1.515-2.896 3.636-5.135 6.363-6.717s5.841-2.373 9.343-2.373c3.434 0 6.514 0.791 9.241 2.373s4.848 3.821 6.363 6.717c1.515 2.894 2.273 6.194 2.273 9.898 0 3.636-0.758 6.884-2.273 9.747-1.515 2.861-3.636 5.1-6.363 6.716s-5.807 2.424-9.241 2.424c-3.502 0-6.616-0.808-9.343-2.424m23.533 7.171c4.141-2.29 7.373-5.471 9.696-9.545s3.485-8.736 3.485-13.988-1.162-9.932-3.485-14.039c-2.323-4.108-5.555-7.307-9.696-9.595-4.141-2.29-8.872-3.434-14.19-3.434-5.388 0-10.151 1.144-14.292 3.434-4.141 2.288-7.373 5.47-9.696 9.544s-3.484 8.77-3.484 14.09c0 5.252 1.161 9.914 3.484 13.988s5.555 7.255 9.696 9.545c4.141 2.288 8.904 3.434 14.292 3.434 5.318 0 10.049-1.146 14.19-3.434"/></g><g id="g4258" transform="translate(556.9 801.71)"><path id="path4260" d="m0 0c-4.108-2.626-8.282-3.939-12.524-3.939s-7.676 1.262-10.302 3.787c-2.626 2.526-3.939 6.346-3.939 11.464v29.593h-7.575v7.171h7.575v14.342h9.494v-14.342h16.362v-7.171h-16.362v-27.876c0-2.964 0.538-5.085 1.616-6.363 1.076-1.28 2.692-1.919 4.848-1.919 2.558 0 5.318 0.841 8.282 2.525l2.525-7.272z"/></g><g id="g4262" transform="translate(595.33 808.73)"><path id="path4264" d="m0 0c3.063 2.121 4.898 4.932 5.504 8.433v5.353h-15.654c-4.243 0-7.391-0.64-9.444-1.919-2.055-1.28-3.08-3.3-3.08-6.06 0-2.762 1.043-4.949 3.131-6.565 2.086-1.616 4.88-2.424 8.382-2.424 4.377 0 8.096 1.061 11.161 3.182m5.605-10.555v7.474c-3.973-5.252-10.201-7.877-18.685-7.877-3.703 0-6.953 0.707-9.746 2.12-2.795 1.414-4.949 3.366-6.464 5.859-1.515 2.49-2.272 5.285-2.272 8.382 0 4.781 1.767 8.568 5.302 11.363 3.535 2.793 8.467 4.224 14.797 4.292h16.967v2.525c0 3.771-1.161 6.682-3.484 8.737-2.323 2.053-5.707 3.08-10.15 3.08-5.388 0-10.875-1.919-16.463-5.756l-3.94 6.463c3.839 2.491 7.389 4.293 10.656 5.404 3.265 1.111 7.154 1.666 11.666 1.666 6.666 0 11.816-1.633 15.453-4.898 3.635-3.267 5.487-7.828 5.554-13.686l0.101-35.148h-9.292z"/></g><g id="g4266" transform="translate(710.41 846.35)"><path id="path4268" d="m0 0c3.5-3.704 5.252-8.753 5.252-15.15v-33.027h-9.494v30.502c0 4.51-1.23 8.046-3.687 10.605-2.458 2.558-5.842 3.838-10.15 3.838-5.05-0.136-9.024-1.919-11.918-5.353-2.896-3.434-4.343-7.845-4.343-13.231v-26.361h-9.494v30.502c0 4.51-1.212 8.046-3.636 10.605-2.424 2.558-5.825 3.838-10.201 3.838-5.05-0.136-9.039-1.919-11.969-5.353-2.929-3.434-4.393-7.845-4.393-13.231v-26.361h-9.393v53.429h9.393v-11.211c3.5 7.541 10.133 11.378 19.897 11.514 4.914 0 9.005-1.179 12.271-3.535 3.265-2.357 5.47-5.656 6.616-9.898 3.298 8.82 10.234 13.297 20.806 13.433 6.126 0 10.941-1.852 14.443-5.555"/></g><g id="g4270" transform="translate(745.31 841.3)"><path id="path4272" d="m0 0c-2.727-1.616-4.848-3.855-6.363-6.716-1.515-2.863-2.272-6.111-2.272-9.747 0-3.704 0.757-7.004 2.272-9.898 1.515-2.896 3.636-5.135 6.363-6.717s5.841-2.373 9.343-2.373c3.434 0 6.514 0.791 9.241 2.373s4.848 3.821 6.363 6.717c1.515 2.894 2.273 6.194 2.273 9.898 0 3.636-0.758 6.884-2.273 9.747-1.515 2.861-3.636 5.1-6.363 6.716s-5.807 2.424-9.241 2.424c-3.502 0-6.616-0.808-9.343-2.424m23.533 7.171c4.141-2.29 7.373-5.471 9.696-9.545s3.485-8.736 3.485-13.988-1.162-9.932-3.485-14.039c-2.323-4.108-5.555-7.307-9.696-9.595-4.141-2.29-8.872-3.434-14.19-3.434-5.388 0-10.151 1.144-14.292 3.434-4.141 2.288-7.373 5.47-9.696 9.544s-3.484 8.77-3.484 14.09c0 5.252 1.161 9.914 3.484 13.988s5.555 7.255 9.696 9.545c4.141 2.288 8.904 3.434 14.292 3.434 5.318 0 10.049-1.146 14.19-3.434"/></g><g id="g4274" transform="translate(817.02 843.02)"><path id="path4276" d="m0 0c-2.661 0.808-5.202 1.212-7.625 1.212-2.829 0-5.101-0.523-6.818-1.566-1.717-1.044-2.576-2.643-2.576-4.797 0-2.156 0.96-3.788 2.879-4.899s4.83-2.239 8.736-3.383c3.703-1.078 6.733-2.156 9.091-3.232 2.355-1.078 4.358-2.661 6.009-4.747 1.649-2.088 2.474-4.848 2.474-8.282 0-5.05-1.903-8.888-5.706-11.514-3.805-2.626-8.535-3.939-14.191-3.939-3.973 0-7.827 0.639-11.564 1.919-3.737 1.278-6.885 3.096-9.443 5.454l3.534 6.868c2.222-2.02 4.965-3.636 8.232-4.848 3.265-1.212 6.447-1.818 9.544-1.818s5.589 0.571 7.474 1.717c1.885 1.144 2.828 2.894 2.828 5.252 0 2.424-0.994 4.242-2.979 5.454-1.987 1.212-5 2.424-9.04 3.636-3.569 1.01-6.481 2.035-8.736 3.08-2.257 1.043-4.176 2.576-5.757 4.596-1.583 2.02-2.374 4.646-2.374 7.878 0 4.982 1.819 8.719 5.454 11.211 3.637 2.49 8.181 3.737 13.636 3.737 3.231 0 6.413-0.455 9.544-1.364s5.84-2.138 8.13-3.686l-3.434-7.171c-2.221 1.346-4.663 2.424-7.322 3.232"/></g><g id="g4278" transform="translate(840.26 803.12)"><path id="path4280" d="m0 0c0.568-0.587 0.853-1.339 0.853-2.255 0-0.917-0.285-1.678-0.853-2.283-0.569-0.605-1.274-0.907-2.117-0.907-0.844 0-1.559 0.302-2.145 0.907-0.587 0.605-0.881 1.366-0.881 2.283 0 0.916 0.294 1.668 0.881 2.255 0.586 0.586 1.301 0.88 2.145 0.88 0.843 0 1.548-0.294 2.117-0.88"/></g><g id="g4282" transform="translate(860.91 822.87)"><path id="path4284" d="m0 0c-1.907 0-3.603-0.422-5.087-1.265-1.485-0.844-2.65-2.035-3.493-3.575-0.844-1.54-1.265-3.319-1.265-5.335 0-2.017 0.412-3.795 1.238-5.335 0.824-1.54 1.961-2.741 3.41-3.602 1.447-0.862 3.107-1.293 4.977-1.293s3.556 0.311 5.06 0.935c1.503 0.623 2.75 1.521 3.74 2.695l2.915-2.97c-1.32-1.65-2.997-2.915-5.033-3.795-2.034-0.88-4.336-1.32-6.902-1.32-2.824 0-5.335 0.623-7.535 1.87-2.2 1.246-3.915 2.979-5.143 5.198-1.228 2.218-1.842 4.757-1.842 7.617s0.614 5.408 1.842 7.645c1.228 2.236 2.943 3.978 5.143 5.225 2.2 1.246 4.711 1.87 7.535 1.87 2.456 0 4.666-0.376 6.627-1.127 1.961-0.752 3.603-1.843 4.923-3.273l-2.805-3.52c-2.31 2.236-5.079 3.355-8.305 3.355"/></g><g id="g4286" transform="translate(885.47 821.66)"><path id="path4288" d="m0 0c-1.485-0.88-2.64-2.099-3.465-3.657-0.825-1.559-1.238-3.328-1.238-5.308 0-2.017 0.413-3.814 1.238-5.39 0.825-1.577 1.98-2.796 3.465-3.657 1.485-0.863 3.181-1.293 5.087-1.293 1.871 0 3.548 0.43 5.033 1.293 1.485 0.861 2.64 2.08 3.465 3.657 0.825 1.576 1.237 3.373 1.237 5.39 0 1.98-0.412 3.749-1.237 5.308-0.825 1.558-1.98 2.777-3.465 3.657s-3.162 1.32-5.033 1.32c-1.906 0-3.602-0.44-5.087-1.32m12.815 3.905c2.255-1.247 4.015-2.979 5.28-5.197 1.265-2.219 1.897-4.758 1.897-7.618s-0.632-5.409-1.897-7.645c-1.265-2.237-3.025-3.979-5.28-5.225-2.255-1.247-4.832-1.87-7.728-1.87-2.934 0-5.527 0.623-7.782 1.87-2.255 1.246-4.015 2.979-5.28 5.197-1.265 2.219-1.898 4.776-1.898 7.673 0 2.86 0.633 5.399 1.898 7.618 1.265 2.218 3.025 3.95 5.28 5.197 2.255 1.246 4.848 1.87 7.782 1.87 2.896 0 5.473-0.624 7.728-1.87"/></g><g id="g4290" transform="translate(958.04 824.41)"><path id="path4292" d="m0 0c1.906-2.017 2.86-4.767 2.86-8.25v-17.985h-5.17v16.61c0 2.456-0.669 4.381-2.007 5.775-1.339 1.393-3.182 2.09-5.528 2.09-2.75-0.074-4.914-1.045-6.49-2.915-1.577-1.87-2.365-4.272-2.365-7.205v-14.355h-5.17v16.61c0 2.456-0.66 4.381-1.98 5.775-1.32 1.393-3.172 2.09-5.555 2.09-2.75-0.074-4.923-1.045-6.517-2.915-1.596-1.87-2.393-4.272-2.393-7.205v-14.355h-5.115v29.095h5.115v-6.105c1.906 4.106 5.518 6.196 10.835 6.27 2.676 0 4.903-0.642 6.683-1.925 1.777-1.284 2.978-3.08 3.602-5.39 1.796 4.803 5.573 7.241 11.33 7.315 3.336 0 5.958-1.009 7.865-3.025"/></g></g></g></svg>
