<?xml version="1.0" encoding="UTF-8" standalone="no"?>
<!-- Created with Inkscape (http://www.inkscape.org/) -->

<svg
   xmlns:dc="http://purl.org/dc/elements/1.1/"
   xmlns:cc="http://creativecommons.org/ns#"
   xmlns:rdf="http://www.w3.org/1999/02/22-rdf-syntax-ns#"
   xmlns:svg="http://www.w3.org/2000/svg"
   xmlns="http://www.w3.org/2000/svg"
   xmlns:sodipodi="http://sodipodi.sourceforge.net/DTD/sodipodi-0.dtd"
   xmlns:inkscape="http://www.inkscape.org/namespaces/inkscape"
   id="svg3676"
   xml:space="preserve"
   height="350"
   viewBox="0 0 350 350"
   width="350"
   version="1.1"
   inkscape:version="0.91 r13725"
   sodipodi:docname="only_logo.svg"><sodipodi:namedview
     pagecolor="#ffffff"
     bordercolor="#666666"
     borderopacity="1"
     objecttolerance="10"
     gridtolerance="10"
     guidetolerance="10"
     inkscape:pageopacity="0"
     inkscape:pageshadow="2"
     inkscape:window-width="1855"
     inkscape:window-height="1056"
     id="namedview120"
     showgrid="false"
     inkscape:zoom="0.76624662"
     inkscape:cx="457.10504"
     inkscape:cy="126.00156"
     inkscape:window-x="65"
     inkscape:window-y="24"
     inkscape:window-maximized="1"
     inkscape:current-layer="svg3676" /><metadata
     id="metadata3682"><rdf:RDF><cc:Work
         rdf:about=""><dc:format>image/svg+xml</dc:format><dc:type
           rdf:resource="http://purl.org/dc/dcmitype/StillImage" /><dc:title></dc:title></cc:Work></rdf:RDF></metadata><defs
     id="defs3680"><clipPath
       id="clipPath3706"
       clipPathUnits="userSpaceOnUse"><path
         id="path3708"
         d="m 112.02,753.9 c 0,-6.107 4.951,-11.058 11.058,-11.058 6.108,0 11.06,4.951 11.06,11.058 0,6.108 -4.952,11.06 -11.06,11.06 -6.107,0 -11.058,-4.952 -11.058,-11.06"
         inkscape:connector-curvature="0" /></clipPath><linearGradient
       id="linearGradient3714"
       gradientUnits="userSpaceOnUse"
       gradientTransform="matrix(160.5,-221,-221,-160.5,31.564,879.91)"><stop
         id="stop3716"
         stop-color="#2aeb8e"
         offset="0" /><stop
         id="stop3718"
         stop-color="#0094f3"
         offset="1" /></linearGradient><clipPath
       id="clipPath3726"
       clipPathUnits="userSpaceOnUse"><path
         id="path3728"
         d="m 201.56,821.1 c 0,-6.108 4.951,-11.059 11.058,-11.059 6.108,0 11.059,4.951 11.059,11.059 0,6.107 -4.951,11.058 -11.059,11.058 -6.107,0 -11.058,-4.951 -11.058,-11.058"
         inkscape:connector-curvature="0" /></clipPath><linearGradient
       id="linearGradient3734"
       gradientUnits="userSpaceOnUse"
       gradientTransform="matrix(160.5,-221,-221,-160.5,122.13,945.69)"><stop
         id="stop3736"
         stop-color="#2aeb8e"
         offset="0" /><stop
         id="stop3738"
         stop-color="#0094f3"
         offset="1" /></linearGradient><clipPath
       id="clipPath3746"
       clipPathUnits="userSpaceOnUse"><path
         id="path3748"
         d="m 164.23,826.52 c -2.552,-34.24 24.244,-47.425 24.244,-47.425 5.742,6.806 7.656,11.91 7.656,11.91 -19.566,11.484 -17.864,30.624 -17.864,30.624 0.425,15.949 10.633,24.456 10.633,24.456 -2.764,4.253 -10.42,9.782 -10.42,9.782 C 165.08,842.044 164.23,826.52 164.23,826.52"
         inkscape:connector-curvature="0" /></clipPath><linearGradient
       id="linearGradient3754"
       gradientUnits="userSpaceOnUse"
       gradientTransform="matrix(160.5,-221,-221,-160.5,100.68,930.11)"><stop
         id="stop3756"
         stop-color="#2aeb8e"
         offset="0" /><stop
         id="stop3758"
         stop-color="#0094f3"
         offset="1" /></linearGradient><clipPath
       id="clipPath3766"
       clipPathUnits="userSpaceOnUse"><path
         id="path3768"
         d="m 221.37,868.75 c -3.349,0.624 -11.706,1.696 -21.197,-0.759 0,0 6.804,-5.954 10.845,-12.547 0,0 22.33,1.701 32.538,-19.99 0,0 10.208,-19.565 -6.167,-37.855 0,0 -7.869,-8.081 -17.651,-9.782 0,0 0,-2.553 -7.231,-15.1 0,0 31.262,-1.063 44.447,29.348 0,0 10.845,22.118 -2.978,44.447 0,0 -9.783,17.438 -30.836,21.904 -7.018,1.489 -9.381,1.985 -9.413,1.985 -0.047,0 5.007,-1.085 7.643,-1.651"
         inkscape:connector-curvature="0" /></clipPath><linearGradient
       id="linearGradient3774"
       gradientUnits="userSpaceOnUse"
       gradientTransform="matrix(160.5,-221,-221,-160.5,130.23,951.57)"><stop
         id="stop3776"
         stop-color="#2aeb8e"
         offset="0" /><stop
         id="stop3778"
         stop-color="#0094f3"
         offset="1" /></linearGradient><clipPath
       id="clipPath3786"
       clipPathUnits="userSpaceOnUse"><path
         id="path3788"
         d="m 99.567,796.29 c 2.846,-8.436 6.22,-12.718 6.22,-12.718 19.958,10.786 35.449,-0.585 35.449,-0.585 13.422,-8.626 15.41,-21.764 15.41,-21.764 5.07,0.162 13.766,3.845 13.766,3.845 -4.89,18.63 -17.73,27.4 -17.73,27.4 -10.693,7.617 -20.973,9.969 -29.596,9.968 -13.92,0 -23.523,-6.14 -23.523,-6.14"
         inkscape:connector-curvature="0" /></clipPath><linearGradient
       id="linearGradient3794"
       gradientUnits="userSpaceOnUse"
       gradientTransform="matrix(160.5,-221,-221,-160.5,52.577,895.17)"><stop
         id="stop3796"
         stop-color="#2aeb8e"
         offset="0" /><stop
         id="stop3798"
         stop-color="#0094f3"
         offset="1" /></linearGradient><clipPath
       id="clipPath3806"
       clipPathUnits="userSpaceOnUse"><path
         id="path3808"
         d="m 83.739,725.82 c 0,0 13.299,-20.734 39.559,-20.478 0,0 19.984,-0.666 34.711,15.029 12.173,12.973 4.298,4.625 1.2,1.338 2.268,2.54 7.517,9.135 10.335,18.528 0,0 -8.62,-2.736 -16.351,-2.777 0,0 -10.113,-19.982 -33.956,-17.476 0,0 -22.023,1.404 -29.183,24.886 0,0 -2.837,10.916 0.776,20.165 0,0 -2.183,1.322 -9.169,14.007 0,0 -17.105,-26.189 2.078,-53.222"
         inkscape:connector-curvature="0" /></clipPath><linearGradient
       id="linearGradient3814"
       gradientUnits="userSpaceOnUse"
       gradientTransform="matrix(160.5,-221,-221,-160.5,23.963,874.39)"><stop
         id="stop3816"
         stop-color="#2aeb8e"
         offset="0" /><stop
         id="stop3818"
         stop-color="#0094f3"
         offset="1" /></linearGradient><clipPath
       id="clipPath3826"
       clipPathUnits="userSpaceOnUse"><path
         id="path3828"
         d="m 97.136,862.36 c 0,-6.107 4.951,-11.058 11.058,-11.058 6.108,0 11.06,4.951 11.06,11.058 0,6.108 -4.952,11.06 -11.06,11.06 -6.107,0 -11.058,-4.952 -11.058,-11.06"
         inkscape:connector-curvature="0" /></clipPath><linearGradient
       id="linearGradient3834"
       gradientUnits="userSpaceOnUse"
       gradientTransform="matrix(160.5,-221,-221,-160.5,73.387,910.29)"><stop
         id="stop3836"
         stop-color="#2aeb8e"
         offset="0" /><stop
         id="stop3838"
         stop-color="#0094f3"
         offset="1" /></linearGradient><clipPath
       id="clipPath3846"
       clipPathUnits="userSpaceOnUse"><path
         id="path3848"
         d="m 142.51,864.48 c 0.504,-22.68 -16.677,-31.285 -16.677,-31.285 -13.797,-8.016 -26.396,-3.798 -26.396,-3.798 -2.168,-4.586 -2.852,-14.005 -2.852,-14.005 18.8,-4.14 32.458,3.289 32.458,3.289 30.476,15.812 27.622,45.539 27.622,45.539 -3.383,0.504 -6.255,0.66 -8.51,0.659 -3.616,0 -5.645,-0.399 -5.645,-0.399"
         inkscape:connector-curvature="0" /></clipPath><linearGradient
       id="linearGradient3854"
       gradientUnits="userSpaceOnUse"
       gradientTransform="matrix(160.5,-221,-221,-160.5,74.731,911.26)"><stop
         id="stop3856"
         stop-color="#2aeb8e"
         offset="0" /><stop
         id="stop3858"
         stop-color="#0094f3"
         offset="1" /></linearGradient><clipPath
       id="clipPath3866"
       clipPathUnits="userSpaceOnUse"><path
         id="path3868"
         d="m 101.15,910.43 c 0,0 -24.518,-2.387 -36.259,-25.879 0,0 -9.702,-17.483 -2.444,-37.745 5.998,-16.746 2.158,-5.935 0.645,-1.679 1.227,-3.177 4.706,-10.853 11.78,-17.642 0,0 1.494,8.919 4.981,15.819 0,0 -13.176,18.109 -0.078,38.188 0,0 11.287,18.963 35.451,14.635 0,0 11.009,-2.451 17.596,-9.883 0,0 2.171,1.341 16.646,1.778 0,0 -13.121,22.964 -40.735,22.966 -2.418,0 -4.942,-0.175 -7.583,-0.558"
         inkscape:connector-curvature="0" /></clipPath><linearGradient
       id="linearGradient3874"
       gradientUnits="userSpaceOnUse"
       gradientTransform="matrix(160.5,-221,-221,-160.5,73.292,910.22)"><stop
         id="stop3876"
         stop-color="#2aeb8e"
         offset="0" /><stop
         id="stop3878"
         stop-color="#0094f3"
         offset="1" /></linearGradient></defs><g
     transform="matrix(1.5762858,0,0,-1.5762858,-78.698747,1453.8162)"
     id="g4787"><g
       id="g3702"><g
         clip-path="url(#clipPath3706)"
         id="g3704"><g
           id="g3710"><g
             id="g3712"><path
               inkscape:connector-curvature="0"
               style="fill:url(#linearGradient3714)"
               d="m 112.02,753.9 c 0,-6.107 4.951,-11.058 11.058,-11.058 6.108,0 11.06,4.951 11.06,11.058 0,6.108 -4.952,11.06 -11.06,11.06 -6.107,0 -11.058,-4.952 -11.058,-11.06"
               id="path3720" /></g></g></g></g><g
       id="g3722"><g
         clip-path="url(#clipPath3726)"
         id="g3724"><g
           id="g3730"><g
             id="g3732"><path
               inkscape:connector-curvature="0"
               style="fill:url(#linearGradient3734)"
               d="m 201.56,821.1 c 0,-6.108 4.951,-11.059 11.058,-11.059 6.108,0 11.059,4.951 11.059,11.059 0,6.107 -4.951,11.058 -11.059,11.058 -6.107,0 -11.058,-4.951 -11.058,-11.058"
               id="path3740" /></g></g></g></g><g
       id="g3742"><g
         clip-path="url(#clipPath3746)"
         id="g3744"><g
           id="g3750"><g
             id="g3752"><path
               inkscape:connector-curvature="0"
               style="fill:url(#linearGradient3754)"
               d="m 164.23,826.52 c -2.552,-34.24 24.244,-47.425 24.244,-47.425 5.742,6.806 7.656,11.91 7.656,11.91 -19.566,11.484 -17.864,30.624 -17.864,30.624 0.425,15.949 10.633,24.456 10.633,24.456 -2.764,4.253 -10.42,9.782 -10.42,9.782 C 165.08,842.044 164.23,826.52 164.23,826.52"
               id="path3760" /></g></g></g></g><g
       id="g3762"><g
         clip-path="url(#clipPath3766)"
         id="g3764"><g
           id="g3770"><g
             id="g3772"><path
               inkscape:connector-curvature="0"
               style="fill:url(#linearGradient3774)"
               d="m 221.37,868.75 c -3.349,0.624 -11.706,1.696 -21.197,-0.759 0,0 6.804,-5.954 10.845,-12.547 0,0 22.33,1.701 32.538,-19.99 0,0 10.208,-19.565 -6.167,-37.855 0,0 -7.869,-8.081 -17.651,-9.782 0,0 0,-2.553 -7.231,-15.1 0,0 31.262,-1.063 44.447,29.348 0,0 10.845,22.118 -2.978,44.447 0,0 -9.783,17.438 -30.836,21.904 -7.018,1.489 -9.381,1.985 -9.413,1.985 -0.047,0 5.007,-1.085 7.643,-1.651"
               id="path3780" /></g></g></g></g><g
       id="g3782"><g
         clip-path="url(#clipPath3786)"
         id="g3784"><g
           id="g3790"><g
             id="g3792"><path
               inkscape:connector-curvature="0"
               style="fill:url(#linearGradient3794)"
               d="m 99.567,796.29 c 2.846,-8.436 6.22,-12.718 6.22,-12.718 19.958,10.786 35.449,-0.585 35.449,-0.585 13.422,-8.626 15.41,-21.764 15.41,-21.764 5.07,0.162 13.766,3.845 13.766,3.845 -4.89,18.63 -17.73,27.4 -17.73,27.4 -10.693,7.617 -20.973,9.969 -29.596,9.968 -13.92,0 -23.523,-6.14 -23.523,-6.14"
               id="path3800" /></g></g></g></g><g
       id="g3802"><g
         clip-path="url(#clipPath3806)"
         id="g3804"><g
           id="g3810"><g
             id="g3812"><path
               inkscape:connector-curvature="0"
               style="fill:url(#linearGradient3814)"
               d="m 83.739,725.82 c 0,0 13.299,-20.734 39.559,-20.478 0,0 19.984,-0.666 34.711,15.029 12.173,12.973 4.298,4.625 1.2,1.338 2.268,2.54 7.517,9.135 10.335,18.528 0,0 -8.62,-2.736 -16.351,-2.777 0,0 -10.113,-19.982 -33.956,-17.476 0,0 -22.023,1.404 -29.183,24.886 0,0 -2.837,10.916 0.776,20.165 0,0 -2.183,1.322 -9.169,14.007 0,0 -17.105,-26.189 2.078,-53.222"
               id="path3820" /></g></g></g></g><g
       id="g3822"><g
         clip-path="url(#clipPath3826)"
         id="g3824"><g
           id="g3830"><g
             id="g3832"><path
               inkscape:connector-curvature="0"
               style="fill:url(#linearGradient3834)"
               d="m 97.136,862.36 c 0,-6.107 4.951,-11.058 11.058,-11.058 6.108,0 11.06,4.951 11.06,11.058 0,6.108 -4.952,11.06 -11.06,11.06 -6.107,0 -11.058,-4.952 -11.058,-11.06"
               id="path3840" /></g></g></g></g><g
       id="g3842"><g
         clip-path="url(#clipPath3846)"
         id="g3844"><g
           id="g3850"><g
             id="g3852"><path
               inkscape:connector-curvature="0"
               style="fill:url(#linearGradient3854)"
               d="m 142.51,864.48 c 0.504,-22.68 -16.677,-31.285 -16.677,-31.285 -13.797,-8.016 -26.396,-3.798 -26.396,-3.798 -2.168,-4.586 -2.852,-14.005 -2.852,-14.005 18.8,-4.14 32.458,3.289 32.458,3.289 30.476,15.812 27.622,45.539 27.622,45.539 -3.383,0.504 -6.255,0.66 -8.51,0.659 -3.616,0 -5.645,-0.399 -5.645,-0.399"
               id="path3860" /></g></g></g></g><g
       id="g3862"><g
         clip-path="url(#clipPath3866)"
         id="g3864"><g
           id="g3870"><g
             id="g3872"><path
               inkscape:connector-curvature="0"
               style="fill:url(#linearGradient3874)"
               d="m 101.15,910.43 c 0,0 -24.518,-2.387 -36.259,-25.879 0,0 -9.702,-17.483 -2.444,-37.745 5.998,-16.746 2.158,-5.935 0.645,-1.679 1.227,-3.177 4.706,-10.853 11.78,-17.642 0,0 1.494,8.919 4.981,15.819 0,0 -13.176,18.109 -0.078,38.188 0,0 11.287,18.963 35.451,14.635 0,0 11.009,-2.451 17.596,-9.883 0,0 2.171,1.341 16.646,1.778 0,0 -13.121,22.964 -40.735,22.966 -2.418,0 -4.942,-0.175 -7.583,-0.558"
               id="path3880" /></g></g></g></g></g></svg>